<?xml version="1.0" encoding="UTF-8" standalone="no"?>
<svg
   width="640"
   height="150"
   viewBox="0 0 169.333 39.688"
   version="1.1"
   id="svg34"
   sodipodi:docname="KM3io.svg"
   inkscape:version="1.2.2 (b0a8486541, 2022-12-01)"
   xmlns:inkscape="http://www.inkscape.org/namespaces/inkscape"
   xmlns:sodipodi="http://sodipodi.sourceforge.net/DTD/sodipodi-0.dtd"
   xmlns:xlink="http://www.w3.org/1999/xlink"
   xmlns="http://www.w3.org/2000/svg"
   xmlns:svg="http://www.w3.org/2000/svg"
   xmlns:rdf="http://www.w3.org/1999/02/22-rdf-syntax-ns#"
   xmlns:cc="http://creativecommons.org/ns#"
   xmlns:dc="http://purl.org/dc/elements/1.1/">
  <title
     id="title321">KM3io.jl logo</title>
  <sodipodi:namedview
     id="namedview36"
     pagecolor="#ffffff"
     bordercolor="#666666"
     borderopacity="1.0"
     inkscape:showpageshadow="2"
     inkscape:pageopacity="0.0"
     inkscape:pagecheckerboard="0"
     inkscape:deskcolor="#d1d1d1"
     showgrid="false"
     inkscape:zoom="1.909375"
     inkscape:cx="582.12766"
     inkscape:cy="-86.677578"
     inkscape:window-width="3832"
     inkscape:window-height="2134"
     inkscape:window-x="3840"
     inkscape:window-y="18"
     inkscape:window-maximized="1"
     inkscape:current-layer="svg34" />
  <defs
     id="defs5">
    <clipPath
       id="b"
       clipPathUnits="userSpaceOnUse">
      <use
         xlink:href="#a"
         id="use2" />
    </clipPath>
  </defs>
  <path
     d="m 41.233,9.632 h 5.445 v 8.3 l 9.788,-8.3 h 4.204 l -11.045,9.339 14.008,12.75 H 57.07 L 46.678,22.26 v 9.463 h -5.445 z m 23.982,0 h 5.274 l 7.632,15.094 7.54,-15.094 h 5.165 v 22.09 H 85.412 V 17.326 L 78.2,31.722 H 76.106 L 68.644,17.156 v 14.566 h -3.428 z m 34.717,10.471 q 1.194,-0.124 2.171,-0.496 0.993,-0.388 1.707,-0.978 0.713,-0.605 1.101,-1.396 0.388,-0.806 0.388,-1.753 0,-0.605 -0.217,-1.132 -0.202,-0.543 -0.574,-0.93 -0.373,-0.388 -0.9,-0.606 -0.527,-0.232 -1.163,-0.232 -0.45,0 -0.993,0.232 -0.543,0.233 -1.086,0.636 -0.527,0.388 -1.024,0.916 -0.496,0.527 -0.853,1.132 l -1.955,-0.884 q 0.388,-1.055 1.024,-1.97 0.636,-0.931 1.52,-1.614 0.9,-0.698 2.033,-1.085 1.147,-0.404 2.544,-0.404 1.334,0 2.497,0.373 1.163,0.356 2.032,1.008 0.869,0.651 1.365,1.536 0.512,0.884 0.512,1.923 0,0.45 -0.233,1.024 -0.217,0.558 -0.62,1.148 -0.388,0.59 -0.946,1.179 -0.559,0.59 -1.21,1.101 0.884,0.388 1.644,1.008 0.776,0.605 1.334,1.35 0.559,0.745 0.869,1.582 0.326,0.838 0.326,1.66 0,1.955 -0.807,3.413 -0.791,1.458 -2.187,2.435 -1.396,0.977 -3.304,1.458 -1.893,0.481 -4.08,0.481 -1.07,0 -1.924,-0.155 -0.853,-0.155 -1.458,-0.434 -0.59,-0.295 -0.9,-0.683 -0.31,-0.403 -0.31,-0.868 0,-0.466 0.248,-0.76 0.264,-0.31 0.652,-0.481 0.388,-0.187 0.838,-0.264 0.45,-0.078 0.837,-0.078 0.822,0 1.443,0.233 0.636,0.233 1.148,0.512 0.512,0.28 0.93,0.512 0.435,0.232 0.885,0.232 0.884,0 1.551,-0.325 0.683,-0.326 1.132,-0.869 0.466,-0.543 0.698,-1.241 0.233,-0.714 0.233,-1.49 0,-0.992 -0.419,-1.83 -0.419,-0.853 -1.272,-1.473 -0.853,-0.636 -2.156,-0.993 -1.303,-0.357 -3.071,-0.357 z m 16.396,-4.126 5.042,-1.396 v 17.14 h -5.042 z m -0.217,-6.22 q 0,-0.512 0.202,-0.962 0.217,-0.45 0.59,-0.776 0.371,-0.341 0.868,-0.527 0.496,-0.202 1.055,-0.202 0.558,0 1.054,0.202 0.497,0.186 0.87,0.527 0.371,0.326 0.589,0.776 0.217,0.45 0.217,0.961 0,0.512 -0.217,0.962 -0.218,0.45 -0.59,0.776 -0.372,0.326 -0.869,0.527 -0.496,0.186 -1.054,0.186 -0.559,0 -1.055,-0.186 -0.497,-0.201 -0.869,-0.527 -0.372,-0.326 -0.59,-0.776 -0.201,-0.45 -0.201,-0.962 z m 17.901,22.275 q -1.985,0 -3.676,-0.651 -1.691,-0.652 -2.917,-1.784 -1.225,-1.148 -1.923,-2.7 -0.683,-1.55 -0.683,-3.335 0,-1.923 0.683,-3.536 0.698,-1.63 1.923,-2.793 1.226,-1.179 2.901,-1.83 1.691,-0.667 3.677,-0.667 1.985,0 3.676,0.651 1.706,0.636 2.932,1.769 1.24,1.132 1.939,2.652 0.698,1.52 0.698,3.273 0,1.846 -0.698,3.475 -0.698,1.629 -1.94,2.855 -1.225,1.21 -2.915,1.923 -1.691,0.698 -3.677,0.698 z M 134.602,30 q 0.698,0 1.272,-0.45 0.59,-0.45 1.008,-1.21 0.419,-0.76 0.651,-1.753 0.249,-0.993 0.249,-2.078 0,-1.598 -0.233,-3.01 -0.233,-1.411 -0.776,-2.466 -0.527,-1.055 -1.396,-1.676 -0.853,-0.62 -2.094,-0.62 -0.59,0 -1.148,0.45 -0.543,0.434 -0.962,1.179 -0.418,0.744 -0.682,1.722 -0.248,0.977 -0.248,2.047 0,1.614 0.294,3.04 0.295,1.428 0.854,2.498 0.574,1.07 1.38,1.706 0.807,0.621 1.83,0.621 z m 10.92,-0.17 q 0,-0.466 0.17,-0.87 0.172,-0.418 0.466,-0.713 0.31,-0.31 0.714,-0.48 0.419,-0.187 0.884,-0.187 0.465,0 0.884,0.186 0.42,0.17 0.714,0.481 0.31,0.295 0.48,0.714 0.187,0.403 0.187,0.868 0,0.466 -0.186,0.885 -0.17,0.403 -0.481,0.713 -0.295,0.295 -0.714,0.465 -0.419,0.171 -0.884,0.171 -0.465,0 -0.884,-0.17 -0.403,-0.171 -0.714,-0.466 -0.294,-0.31 -0.465,-0.713 -0.17,-0.42 -0.17,-0.885 z"
     id="path7"
     style="font-size:31.7692px;line-height:1.25;font-family:'Tamil MN';-inkscape-font-specification:'Tamil MN';letter-spacing:0;word-spacing:0;stroke-width:0.794234" />
  <path
     d="m 158.816,31.722 q 0,2.218 -0.512,3.568 -0.496,1.365 -1.411,2.11 -0.915,0.76 -2.203,1.008 -1.287,0.263 -2.854,0.263 -1.055,0 -1.877,-0.186 -0.822,-0.17 -1.38,-0.48 -0.56,-0.31 -0.838,-0.73 -0.295,-0.403 -0.295,-0.853 0,-0.791 0.62,-1.318 0.62,-0.528 1.691,-0.528 0.403,0 0.73,0.124 0.31,0.124 0.558,0.31 0.248,0.202 0.45,0.42 0.186,0.232 0.325,0.434 0.357,0.465 0.59,0.62 0.248,0.155 0.45,0.155 0.217,0 0.387,-0.108 0.171,-0.109 0.28,-0.388 0.108,-0.28 0.155,-0.745 0.062,-0.465 0.062,-1.194 V 15.977 l 5.072,-1.396 z m -5.29,-21.966 q 0,-0.511 0.202,-0.961 0.217,-0.45 0.59,-0.776 0.372,-0.341 0.868,-0.527 0.497,-0.202 1.055,-0.202 0.559,0 1.055,0.202 0.497,0.186 0.869,0.527 0.372,0.326 0.59,0.776 0.216,0.45 0.216,0.961 0,0.512 -0.217,0.962 -0.217,0.45 -0.59,0.776 -0.371,0.326 -0.868,0.527 -0.496,0.186 -1.055,0.186 -0.558,0 -1.055,-0.186 -0.496,-0.201 -0.868,-0.527 -0.373,-0.326 -0.59,-0.776 -0.201,-0.45 -0.201,-0.962 z m 14.489,21.966 h -5.01 V 8.376 l 5.01,-1.396 z"
     id="path9"
     style="font-size:31.7692px;line-height:1.25;font-family:'Tamil MN';-inkscape-font-specification:'Tamil MN';letter-spacing:0;word-spacing:0;stroke-width:0.794234" />
  <path
     style="fill:#3f61d7;fill-opacity:1;fill-rule:nonzero;stroke:none;stroke-width:0.194319"
     d="m 122.12509,9.5034651 c 0,1.8882749 -1.51491,3.4179689 -3.38326,3.4179689 -1.86836,0 -3.38328,-1.529694 -3.38328,-3.4179689 0,-1.887515 1.51492,-3.4179718 3.38328,-3.4179718 1.86835,0 3.38326,1.5304568 3.38326,3.4179718"
     id="path371" />
  <g
     clip-path="url(#b)"
     transform="translate(-22.078 -88.72)"
     id="g32">
    <circle
       id="a"
       cx="39.401"
       cy="106.043"
       r="16"
       style="fill:#b3b3b3;stroke-width:.350949;stroke-linejoin:round" />
    <path
       d="M47.917 113.5a3.675 3.675 0 1 1 3.678-3.675 3.679 3.679 0 0 1-3.678 3.675Z"
       class="cls-3"
       style="fill:#ca3c32;stroke-width:.412882"
       id="path14" />
    <path
       d="M56.749 113.5a3.675 3.675 0 1 1 3.678-3.675 3.679 3.679 0 0 1-3.678 3.675Z"
       class="cls-4"
       style="fill:#9259a3;stroke-width:.412882"
       id="path16" />
    <path
       d="M52.339 105.85a3.675 3.675 0 1 1 3.674-3.675 3.67 3.67 0 0 1-3.674 3.674z"
       class="cls-5"
       style="fill:#399746;stroke-width:.412882"
       id="path18" />
    <path
       d="M21.42 113.5a3.675 3.675 0 1 1 3.68-3.675 3.679 3.679 0 0 1-3.68 3.675Z"
       class="cls-3"
       style="fill:#ca3c32;stroke-width:.412882"
       id="path20" />
    <path
       d="M30.253 113.5a3.675 3.675 0 1 1 3.678-3.675 3.679 3.679 0 0 1-3.678 3.675Z"
       class="cls-4"
       style="fill:#9259a3;stroke-width:.412882"
       id="path22" />
    <path
       d="M25.843 105.85a3.675 3.675 0 1 1 3.674-3.675 3.67 3.67 0 0 1-3.674 3.674z"
       class="cls-5"
       style="fill:#399746;stroke-width:.412882"
       id="path24" />
    <path
       d="M34.67 98.5a3.675 3.675 0 1 0 3.68 3.675 3.679 3.679 0 0 0-3.68-3.675Z"
       class="cls-3"
       style="fill:#ca3c32;stroke-width:.412882"
       id="path26" />
    <path
       d="M43.502 98.5a3.675 3.675 0 1 0 3.679 3.675 3.679 3.679 0 0 0-3.679-3.675Z"
       class="cls-4"
       style="fill:#9259a3;stroke-width:.412882"
       id="path28" />
    <path
       d="M39.088 106.15a3.675 3.675 0 1 0 3.675 3.675 3.67 3.67 0 0 0-3.675-3.674z"
       class="cls-5"
       style="fill:#399746;stroke-width:.412882"
       id="path30" />
  </g>
  <metadata
     id="metadata319">
    <rdf:RDF>
      <cc:Work
         rdf:about="">
        <dc:title>KM3io.jl logo</dc:title>
        <dc:date>2023-04-12</dc:date>
        <dc:creator>
          <cc:Agent>
            <dc:title>Johannes Schumann</dc:title>
          </cc:Agent>
        </dc:creator>
        <dc:rights>
          <cc:Agent>
            <dc:title>KM3NeT </dc:title>
          </cc:Agent>
        </dc:rights>
        <dc:publisher>
          <cc:Agent>
            <dc:title>KM3NeT </dc:title>
          </cc:Agent>
        </dc:publisher>
        <dc:language>en</dc:language>
        <dc:subject>
          <rdf:Bag>
            <rdf:li>neutrino km3net io dataformat root</rdf:li>
          </rdf:Bag>
        </dc:subject>
        <cc:license
           rdf:resource="http://creativecommons.org/licenses/by/4.0/" />
      </cc:Work>
      <cc:License
         rdf:about="http://creativecommons.org/licenses/by/4.0/">
        <cc:permits
           rdf:resource="http://creativecommons.org/ns#Reproduction" />
        <cc:permits
           rdf:resource="http://creativecommons.org/ns#Distribution" />
        <cc:requires
           rdf:resource="http://creativecommons.org/ns#Notice" />
        <cc:requires
           rdf:resource="http://creativecommons.org/ns#Attribution" />
        <cc:permits
           rdf:resource="http://creativecommons.org/ns#DerivativeWorks" />
      </cc:License>
    </rdf:RDF>
  </metadata>
</svg>
