<?xml version="1.0" encoding="UTF-8" standalone="no"?>
<!-- Created with Inkscape (http://www.inkscape.org/) -->

<svg
   width="640"
   height="150"
   viewBox="0 0 169.33333 39.6875"
   version="1.1"
   id="svg511"
   inkscape:version="1.2.2 (b0a8486541, 2022-12-01)"
   sodipodi:docname="KM3io.svg"
   xmlns:inkscape="http://www.inkscape.org/namespaces/inkscape"
   xmlns:sodipodi="http://sodipodi.sourceforge.net/DTD/sodipodi-0.dtd"
   xmlns:xlink="http://www.w3.org/1999/xlink"
   xmlns="http://www.w3.org/2000/svg"
   xmlns:svg="http://www.w3.org/2000/svg">
  <sodipodi:namedview
     id="namedview513"
     pagecolor="#ffffff"
     bordercolor="#666666"
     borderopacity="1.0"
     inkscape:showpageshadow="2"
     inkscape:pageopacity="0.0"
     inkscape:pagecheckerboard="0"
     inkscape:deskcolor="#d1d1d1"
     inkscape:document-units="mm"
     showgrid="false"
     inkscape:zoom="1.1300912"
     inkscape:cx="358.82061"
     inkscape:cy="235.82169"
     inkscape:window-width="1912"
     inkscape:window-height="1054"
     inkscape:window-x="0"
     inkscape:window-y="18"
     inkscape:window-maximized="1"
     inkscape:current-layer="layer1" />
  <defs
     id="defs508">
    <clipPath
       clipPathUnits="userSpaceOnUse"
       id="clipPath753">
      <use
         x="0"
         y="0"
         xlink:href="#g749"
         id="use755" />
    </clipPath>
  </defs>
  <g
     inkscape:label="Text"
     inkscape:groupmode="layer"
     id="layer1"
     transform="translate(-22.078069,-88.719716)">
    <g
       aria-label="KM3io.jl"
       id="text740"
       style="font-size:31.7692px;line-height:1.25;font-family:'Tamil MN';-inkscape-font-specification:'Tamil MN';letter-spacing:0px;word-spacing:0px;stroke-width:0.794234">
      <path
         d="m 63.311146,98.352045 h 5.444819 v 8.299085 l 9.788264,-8.299085 h 4.203834 l -11.04476,9.338405 14.007611,12.75112 h -6.561705 l -10.393244,-9.46251 v 9.46251 h -5.444819 z"
         id="path1587" />
      <path
         d="m 87.293169,98.352045 h 5.274184 l 7.632057,15.093475 7.53898,-15.093475 h 5.16559 v 22.089525 h -5.41379 v -14.39542 l -7.21322,14.39542 h -2.094163 l -7.461418,-14.56606 v 14.56606 h -3.42822 z"
         id="path1589" />
      <path
         d="m 122.00971,108.82285 q 1.19444,-0.1241 2.17172,-0.49639 0.99279,-0.38781 1.70635,-0.97728 0.71357,-0.60498 1.10138,-1.39611 0.3878,-0.80664 0.3878,-1.75289 0,-0.60498 -0.21717,-1.13239 -0.20166,-0.54294 -0.57395,-0.93074 -0.3723,-0.38781 -0.89972,-0.60498 -0.52742,-0.23269 -1.16342,-0.23269 -0.44986,0 -0.99279,0.23269 -0.54293,0.23268 -1.08586,0.636 -0.52742,0.38781 -1.02381,0.91523 -0.49639,0.52742 -0.85318,1.1324 l -1.95455,-0.88421 q 0.38781,-1.05483 1.02381,-1.97006 0.63601,-0.93074 1.52021,-1.613278 0.89971,-0.698053 2.03211,-1.085861 1.14791,-0.40332 2.54402,-0.40332 1.33406,0 2.49748,0.372296 1.16342,0.356783 2.03211,1.008299 0.86869,0.651514 1.36509,1.535714 0.5119,0.88421 0.5119,1.92353 0,0.44986 -0.23268,1.02381 -0.21718,0.55845 -0.6205,1.14791 -0.3878,0.58947 -0.94625,1.17894 -0.55844,0.58947 -1.20996,1.10137 0.88421,0.38781 1.64431,1.0083 0.77561,0.60498 1.33406,1.34957 0.55844,0.74459 0.86869,1.58226 0.32575,0.83766 0.32575,1.65981 0,1.95455 -0.80664,3.41271 -0.79112,1.45816 -2.18723,2.43543 -1.39611,0.97728 -3.30412,1.45816 -1.8925,0.48088 -4.07974,0.48088 -1.07035,0 -1.92352,-0.15512 -0.85318,-0.15513 -1.45816,-0.43435 -0.58947,-0.29473 -0.89971,-0.68254 -0.31025,-0.40332 -0.31025,-0.86869 0,-0.46537 0.2482,-0.7601 0.26371,-0.31025 0.65151,-0.48088 0.38781,-0.18615 0.83767,-0.26371 0.44986,-0.0776 0.83766,-0.0776 0.82216,0 1.44265,0.23268 0.636,0.23269 1.14791,0.51191 0.5119,0.27922 0.93074,0.5119 0.43434,0.23269 0.8842,0.23269 0.8842,0 1.55123,-0.32576 0.68254,-0.32576 1.1324,-0.86869 0.46537,-0.54293 0.69805,-1.24098 0.23268,-0.71357 0.23268,-1.48918 0,-0.99279 -0.41883,-1.83046 -0.41883,-0.85317 -1.27201,-1.47367 -0.85317,-0.636 -2.15621,-0.99278 -1.30303,-0.35679 -3.07143,-0.35679 z"
         id="path1591" />
      <path
         d="m 138.40621,104.69658 5.0415,-1.39611 v 17.1411 h -5.0415 z m -0.21717,-6.220437 q 0,-0.511906 0.20166,-0.961762 0.21717,-0.449857 0.58946,-0.775616 0.3723,-0.34127 0.86869,-0.527418 0.4964,-0.20166 1.05484,-0.20166 0.55844,0 1.05484,0.20166 0.49639,0.186148 0.86869,0.527418 0.37229,0.325759 0.58946,0.775616 0.21718,0.449856 0.21718,0.961762 0,0.511907 -0.21718,0.961763 -0.21717,0.449857 -0.58946,0.775614 -0.3723,0.32576 -0.86869,0.52742 -0.4964,0.18615 -1.05484,0.18615 -0.55844,0 -1.05484,-0.18615 -0.49639,-0.20166 -0.86869,-0.52742 -0.37229,-0.325757 -0.58946,-0.775614 -0.20166,-0.449856 -0.20166,-0.961763 z"
         id="path1593" />
      <path
         d="m 156.09024,120.75181 q -1.98557,0 -3.67641,-0.65151 -1.69084,-0.65152 -2.91632,-1.78392 -1.22547,-1.14791 -1.92352,-2.69914 -0.68254,-1.55123 -0.68254,-3.33515 0,-1.92352 0.68254,-3.5368 0.69805,-1.62879 1.92352,-2.79222 1.22548,-1.17893 2.9008,-1.83045 1.69085,-0.66703 3.67642,-0.66703 1.98558,0 3.67642,0.65152 1.70635,0.636 2.93182,1.7684 1.24099,1.1324 1.93904,2.65261 0.69805,1.5202 0.69805,3.27309 0,1.84597 -0.69805,3.47476 -0.69805,1.62879 -1.93904,2.85426 -1.22547,1.20996 -2.91631,1.92353 -1.69084,0.69805 -3.67642,0.69805 z m 0.58947,-2.03211 q 0.69805,0 1.27201,-0.44986 0.58947,-0.44985 1.0083,-1.20996 0.41883,-0.7601 0.65152,-1.75289 0.24819,-0.99278 0.24819,-2.07865 0,-1.59776 -0.23268,-3.00938 -0.23269,-1.41162 -0.77562,-2.46646 -0.52742,-1.05484 -1.3961,-1.67533 -0.85318,-0.62049 -2.09417,-0.62049 -0.58946,0 -1.14791,0.44986 -0.54293,0.43434 -0.96176,1.17893 -0.41883,0.74459 -0.68254,1.72187 -0.2482,0.97727 -0.2482,2.04762 0,1.61328 0.29474,3.04041 0.29473,1.42714 0.85317,2.49749 0.57396,1.07034 1.3806,1.70635 0.80664,0.62049 1.83045,0.62049 z"
         id="path1595" />
      <path
         d="m 167.60037,118.54907 q 0,-0.46537 0.17064,-0.86869 0.17063,-0.41884 0.46537,-0.71357 0.31024,-0.31025 0.71356,-0.48088 0.41883,-0.18615 0.8842,-0.18615 0.46537,0 0.8842,0.18615 0.41884,0.17063 0.71357,0.48088 0.31025,0.29473 0.48088,0.71357 0.18615,0.40332 0.18615,0.86869 0,0.46536 -0.18615,0.8842 -0.17063,0.40332 -0.48088,0.71356 -0.29473,0.29474 -0.71357,0.46537 -0.41883,0.17064 -0.8842,0.17064 -0.46537,0 -0.8842,-0.17064 -0.40332,-0.17063 -0.71356,-0.46537 -0.29474,-0.31024 -0.46537,-0.71356 -0.17064,-0.41884 -0.17064,-0.8842 z"
         id="path1597" />
      <path
         d="m 180.89442,120.44157 q 0,2.21826 -0.51191,3.56783 -0.49639,1.36508 -1.41162,2.10967 -0.91523,0.7601 -2.20275,1.0083 -1.28752,0.26371 -2.85426,0.26371 -1.05484,0 -1.87699,-0.18615 -0.82215,-0.17063 -1.38059,-0.48088 -0.55845,-0.31025 -0.83767,-0.72908 -0.29473,-0.40332 -0.29473,-0.85318 0,-0.79112 0.62049,-1.31854 0.62049,-0.52742 1.69084,-0.52742 0.40332,0 0.72908,0.1241 0.31024,0.1241 0.55844,0.31024 0.2482,0.20166 0.44986,0.41884 0.18615,0.23268 0.32576,0.43434 0.35678,0.46537 0.58946,0.62049 0.2482,0.15513 0.44986,0.15513 0.21717,0 0.38781,-0.10859 0.17063,-0.10859 0.27922,-0.38781 0.10859,-0.27922 0.15512,-0.74459 0.062,-0.46537 0.062,-1.19444 v -18.22696 l 5.07253,-1.39611 z m -5.2897,-21.965427 q 0,-0.511906 0.20166,-0.961762 0.21717,-0.449857 0.58947,-0.775616 0.37229,-0.34127 0.86869,-0.527418 0.49639,-0.20166 1.05483,-0.20166 0.55845,0 1.05484,0.20166 0.49639,0.186148 0.86869,0.527418 0.37229,0.325759 0.58947,0.775616 0.21717,0.449856 0.21717,0.961762 0,0.511907 -0.21717,0.961763 -0.21718,0.449857 -0.58947,0.775614 -0.3723,0.32576 -0.86869,0.52742 -0.49639,0.18615 -1.05484,0.18615 -0.55844,0 -1.05483,-0.18615 -0.4964,-0.20166 -0.86869,-0.52742 -0.3723,-0.325757 -0.58947,-0.775614 -0.20166,-0.449856 -0.20166,-0.961763 z"
         id="path1599" />
      <path
         d="m 190.09321,120.44157 h -5.01047 V 97.095548 l 5.01047,-1.396107 z"
         id="path1601" />
    </g>
  </g>
  <g
     inkscape:groupmode="layer"
     id="layer2"
     inkscape:label="DOM"
     transform="translate(-22.078069,-88.719716)">
    <g
       id="g751"
       clip-path="url(#clipPath753)">
      <g
         inkscape:label="Clip"
         id="g749">
        <circle
           style="fill:#b3b3b3;stroke-width:0.350949;stroke-linejoin:round"
           id="path684"
           cx="39.400986"
           cy="106.04263"
           r="16" />
      </g>
      <path
         id="path13"
         d="M 47.91652,113.5 A 3.6746491,3.6746491 0 1 1 51.595298,109.82535 3.6787779,3.6787779 0 0 1 47.91652,113.5 Z"
         class="cls-3"
         style="fill:#ca3c32;stroke-width:0.412882" />
      <path
         id="path25"
         d="M 56.74852,113.5 A 3.6746491,3.6746491 0 1 1 60.427298,109.82535 3.6787779,3.6787779 0 0 1 56.74852,113.5 Z"
         class="cls-4"
         style="fill:#9259a3;stroke-width:0.412882" />
      <path
         id="path31"
         d="m 52.338649,105.8493 a 3.6746491,3.6746491 0 1 1 3.674649,-3.67465 3.6705203,3.6705203 0 0 1 -3.674649,3.67465 z"
         class="cls-5"
         style="fill:#399746;stroke-width:0.412882" />
      <path
         id="path13-62"
         d="M 21.42052,113.5 A 3.6746491,3.6746491 0 1 1 25.099298,109.82535 3.6787779,3.6787779 0 0 1 21.42052,113.5 Z"
         class="cls-3"
         style="fill:#ca3c32;stroke-width:0.412882" />
      <path
         id="path25-9"
         d="M 30.252521,113.5 A 3.6746491,3.6746491 0 1 1 33.931298,109.82535 3.6787779,3.6787779 0 0 1 30.252521,113.5 Z"
         class="cls-4"
         style="fill:#9259a3;stroke-width:0.412882" />
      <path
         id="path31-1"
         d="m 25.842649,105.8493 a 3.6746491,3.6746491 0 1 1 3.674649,-3.67465 3.6705203,3.6705203 0 0 1 -3.674649,3.67465 z"
         class="cls-5"
         style="fill:#399746;stroke-width:0.412882" />
      <path
         id="path13-6"
         d="m 34.67052,98.5 a 3.6746491,3.6746491 0 1 0 3.678778,3.67465 A 3.6787779,3.6787779 0 0 0 34.67052,98.5 Z"
         class="cls-3"
         style="fill:#ca3c32;stroke-width:0.412882" />
      <path
         id="path25-7"
         d="m 43.502065,98.5 a 3.6746491,3.6746491 0 1 0 3.678777,3.67465 A 3.6787779,3.6787779 0 0 0 43.502065,98.5 Z"
         class="cls-4"
         style="fill:#9259a3;stroke-width:0.412882" />
      <path
         id="path31-5"
         d="m 39.088357,106.1507 a 3.6746491,3.6746491 0 1 0 3.674649,3.67465 3.6705203,3.6705203 0 0 0 -3.674649,-3.67465 z"
         class="cls-5"
         style="fill:#399746;stroke-width:0.412882" />
    </g>
  </g>
</svg>
