<?xml version="1.0" encoding="UTF-8" standalone="no"?>
<svg
   width="640"
   height="150"
   viewBox="0 0 169.333 39.688"
   version="1.1"
   id="svg34"
   sodipodi:docname="KM3io.svg"
   inkscape:version="1.2.2 (b0a8486541, 2022-12-01)"
   xmlns:inkscape="http://www.inkscape.org/namespaces/inkscape"
   xmlns:sodipodi="http://sodipodi.sourceforge.net/DTD/sodipodi-0.dtd"
   xmlns:xlink="http://www.w3.org/1999/xlink"
   xmlns="http://www.w3.org/2000/svg"
   xmlns:svg="http://www.w3.org/2000/svg"
   xmlns:rdf="http://www.w3.org/1999/02/22-rdf-syntax-ns#"
   xmlns:cc="http://creativecommons.org/ns#"
   xmlns:dc="http://purl.org/dc/elements/1.1/">
  <title
     id="title321">KM3io.jl logo</title>
  <sodipodi:namedview
     id="namedview36"
     pagecolor="#ffffff"
     bordercolor="#666666"
     borderopacity="1.0"
     inkscape:showpageshadow="2"
     inkscape:pageopacity="0.0"
     inkscape:pagecheckerboard="0"
     inkscape:deskcolor="#d1d1d1"
     showgrid="false"
     inkscape:zoom="1.909375"
     inkscape:cx="273.91162"
     inkscape:cy="75.155483"
     inkscape:window-width="1912"
     inkscape:window-height="1054"
     inkscape:window-x="0"
     inkscape:window-y="18"
     inkscape:window-maximized="1"
     inkscape:current-layer="svg34" />
  <defs
     id="defs5">
    <clipPath
       id="b"
       clipPathUnits="userSpaceOnUse">
      <use
         xlink:href="#a"
         id="use2" />
    </clipPath>
  </defs>
  <g
     aria-label="KM3io.jl"
     style="font-size:31.7692px;line-height:1.25;font-family:&quot;Tamil MN&quot;;-inkscape-font-specification:&quot;Tamil MN&quot;;letter-spacing:0;word-spacing:0;stroke-width:.794234"
     id="g11">
    <path
       d="M41.233 9.632h5.445v8.3l9.788-8.3h4.204l-11.045 9.339 14.008 12.75H57.07L46.678 22.26v9.463h-5.445zM65.215 9.632h5.274l7.632 15.094 7.54-15.094h5.165v22.09h-5.414V17.326L78.2 31.722h-2.094l-7.462-14.566v14.566h-3.428zM99.932 20.103q1.194-.124 2.171-.496.993-.388 1.707-.978.713-.605 1.101-1.396.388-.806.388-1.753 0-.605-.217-1.132-.202-.543-.574-.93-.373-.388-.9-.606-.527-.232-1.163-.232-.45 0-.993.232-.543.233-1.086.636-.527.388-1.024.916-.496.527-.853 1.132l-1.955-.884q.388-1.055 1.024-1.97.636-.931 1.52-1.614.9-.698 2.033-1.085 1.147-.404 2.544-.404 1.334 0 2.497.373 1.163.356 2.032 1.008.869.651 1.365 1.536.512.884.512 1.923 0 .45-.233 1.024-.217.558-.62 1.148-.388.59-.946 1.179-.559.59-1.21 1.101.884.388 1.644 1.008.776.605 1.334 1.35.559.745.869 1.582.326.838.326 1.66 0 1.955-.807 3.413-.791 1.458-2.187 2.435-1.396.977-3.304 1.458-1.893.481-4.08.481-1.07 0-1.924-.155-.853-.155-1.458-.434-.59-.295-.9-.683-.31-.403-.31-.868 0-.466.248-.76.264-.31.652-.481.388-.187.838-.264.45-.078.837-.078.822 0 1.443.233.636.233 1.148.512.512.28.93.512.435.232.885.232.884 0 1.551-.325.683-.326 1.132-.869.466-.543.698-1.241.233-.714.233-1.49 0-.992-.419-1.83-.419-.853-1.272-1.473-.853-.636-2.156-.993-1.303-.357-3.071-.357zM116.328 15.977l5.042-1.396v17.14h-5.042zm-.217-6.22q0-.512.202-.962.217-.45.59-.776.371-.341.868-.527.496-.202 1.055-.202.558 0 1.054.202.497.186.87.527.371.326.589.776.217.45.217.961 0 .512-.217.962-.218.45-.59.776t-.869.527q-.496.186-1.054.186-.559 0-1.055-.186-.497-.201-.869-.527t-.59-.776q-.201-.45-.201-.962zM134.012 32.032q-1.985 0-3.676-.651-1.691-.652-2.917-1.784-1.225-1.148-1.923-2.7-.683-1.55-.683-3.335 0-1.923.683-3.536.698-1.63 1.923-2.793 1.226-1.179 2.901-1.83 1.691-.667 3.677-.667 1.985 0 3.676.651 1.706.636 2.932 1.769 1.24 1.132 1.939 2.652.698 1.52.698 3.273 0 1.846-.698 3.475t-1.94 2.855q-1.225 1.21-2.915 1.923-1.691.698-3.677.698zm.59-2.032q.698 0 1.272-.45.59-.45 1.008-1.21.419-.76.651-1.753.249-.993.249-2.078 0-1.598-.233-3.01-.233-1.411-.776-2.466-.527-1.055-1.396-1.676-.853-.62-2.094-.62-.59 0-1.148.45-.543.434-.962 1.179-.418.744-.682 1.722-.248.977-.248 2.047 0 1.614.294 3.04.295 1.428.854 2.498.574 1.07 1.38 1.706.807.621 1.83.621zM145.522 29.83q0-.466.17-.87.172-.418.466-.713.31-.31.714-.48.419-.187.884-.187t.884.186q.42.17.714.481.31.295.48.714.187.403.187.868 0 .466-.186.885-.17.403-.481.713-.295.295-.714.465-.419.171-.884.171t-.884-.17q-.403-.171-.714-.466-.294-.31-.465-.713-.17-.42-.17-.885z"
       id="path7" />
    <path
       d="M158.816 31.722q0 2.218-.512 3.568-.496 1.365-1.411 2.11-.915.76-2.203 1.008-1.287.263-2.854.263-1.055 0-1.877-.186-.822-.17-1.38-.48-.56-.31-.838-.73-.295-.403-.295-.853 0-.791.62-1.318.62-.528 1.691-.528.403 0 .73.124.31.124.558.31.248.202.45.42.186.232.325.434.357.465.59.62.248.155.45.155.217 0 .387-.108.171-.109.28-.388.108-.28.155-.745.062-.465.062-1.194V15.977l5.072-1.396zm-5.29-21.966q0-.511.202-.961.217-.45.59-.776.372-.341.868-.527.497-.202 1.055-.202.559 0 1.055.202.497.186.869.527.372.326.59.776.216.45.216.961 0 .512-.217.962-.217.45-.59.776-.371.326-.868.527-.496.186-1.055.186-.558 0-1.055-.186-.496-.201-.868-.527-.373-.326-.59-.776-.201-.45-.201-.962zM168.015 31.722h-5.01V8.376l5.01-1.396z"
       id="path9" />
  </g>
  <g
     clip-path="url(#b)"
     transform="translate(-22.078 -88.72)"
     id="g32">
    <circle
       id="a"
       cx="39.401"
       cy="106.043"
       r="16"
       style="fill:#b3b3b3;stroke-width:.350949;stroke-linejoin:round" />
    <path
       d="M47.917 113.5a3.675 3.675 0 1 1 3.678-3.675 3.679 3.679 0 0 1-3.678 3.675Z"
       class="cls-3"
       style="fill:#ca3c32;stroke-width:.412882"
       id="path14" />
    <path
       d="M56.749 113.5a3.675 3.675 0 1 1 3.678-3.675 3.679 3.679 0 0 1-3.678 3.675Z"
       class="cls-4"
       style="fill:#9259a3;stroke-width:.412882"
       id="path16" />
    <path
       d="M52.339 105.85a3.675 3.675 0 1 1 3.674-3.675 3.67 3.67 0 0 1-3.674 3.674z"
       class="cls-5"
       style="fill:#399746;stroke-width:.412882"
       id="path18" />
    <path
       d="M21.42 113.5a3.675 3.675 0 1 1 3.68-3.675 3.679 3.679 0 0 1-3.68 3.675Z"
       class="cls-3"
       style="fill:#ca3c32;stroke-width:.412882"
       id="path20" />
    <path
       d="M30.253 113.5a3.675 3.675 0 1 1 3.678-3.675 3.679 3.679 0 0 1-3.678 3.675Z"
       class="cls-4"
       style="fill:#9259a3;stroke-width:.412882"
       id="path22" />
    <path
       d="M25.843 105.85a3.675 3.675 0 1 1 3.674-3.675 3.67 3.67 0 0 1-3.674 3.674z"
       class="cls-5"
       style="fill:#399746;stroke-width:.412882"
       id="path24" />
    <path
       d="M34.67 98.5a3.675 3.675 0 1 0 3.68 3.675 3.679 3.679 0 0 0-3.68-3.675Z"
       class="cls-3"
       style="fill:#ca3c32;stroke-width:.412882"
       id="path26" />
    <path
       d="M43.502 98.5a3.675 3.675 0 1 0 3.679 3.675 3.679 3.679 0 0 0-3.679-3.675Z"
       class="cls-4"
       style="fill:#9259a3;stroke-width:.412882"
       id="path28" />
    <path
       d="M39.088 106.15a3.675 3.675 0 1 0 3.675 3.675 3.67 3.67 0 0 0-3.675-3.674z"
       class="cls-5"
       style="fill:#399746;stroke-width:.412882"
       id="path30" />
  </g>
  <metadata
     id="metadata319">
    <rdf:RDF>
      <cc:Work
         rdf:about="">
        <dc:title>KM3io.jl logo</dc:title>
        <dc:date>2023-04-12</dc:date>
        <dc:creator>
          <cc:Agent>
            <dc:title>Johannes Schumann</dc:title>
          </cc:Agent>
        </dc:creator>
        <dc:rights>
          <cc:Agent>
            <dc:title>KM3NeT </dc:title>
          </cc:Agent>
        </dc:rights>
        <dc:publisher>
          <cc:Agent>
            <dc:title>KM3NeT </dc:title>
          </cc:Agent>
        </dc:publisher>
        <dc:language>en</dc:language>
        <dc:subject>
          <rdf:Bag>
            <rdf:li>neutrino km3net io dataformat root</rdf:li>
          </rdf:Bag>
        </dc:subject>
        <cc:license
           rdf:resource="http://creativecommons.org/licenses/by/4.0/" />
      </cc:Work>
      <cc:License
         rdf:about="http://creativecommons.org/licenses/by/4.0/">
        <cc:permits
           rdf:resource="http://creativecommons.org/ns#Reproduction" />
        <cc:permits
           rdf:resource="http://creativecommons.org/ns#Distribution" />
        <cc:requires
           rdf:resource="http://creativecommons.org/ns#Notice" />
        <cc:requires
           rdf:resource="http://creativecommons.org/ns#Attribution" />
        <cc:permits
           rdf:resource="http://creativecommons.org/ns#DerivativeWorks" />
      </cc:License>
    </rdf:RDF>
  </metadata>
</svg>
